<svg xmlns="http://www.w3.org/2000/svg" width="1370" height="435" viewBox="98 262 1370 435" fill="none" role="img" aria-labelledby="title desc">
  <title id="title">Ergonaute Consulting horizontal logo</title>
  <desc id="desc">Vector trace of the approved Ergonaute logo artwork, preserving the original lettering, profile, points, and spacing.</desc>
  <path id="navy" d="M630,484 L646,484 L646,479 L645,479 L645,476 L644,476 L641,468 L634,461 L630,460 L629,458 L621,457 L621,456 L610,456 L610,457 L605,457 L605,458 L602,458 L602,459 L598,460 L597,462 L595,462 L589,468 L589,470 L587,471 L587,473 L585,475 L585,478 L584,478 L584,484ZM451,612 L450,614 L448,614 L448,615 L446,615 L444,617 L441,617 L439,619 L436,619 L436,620 L431,620 L431,621 L427,621 L427,622 L411,624 L411,625 L407,625 L407,626 L402,626 L402,627 L390,629 L390,630 L384,631 L384,632 L382,632 L382,633 L380,633 L380,634 L378,634 L378,635 L368,639 L367,641 L362,643 L360,646 L358,646 L343,661 L343,663 L335,671 L333,676 L330,679 L328,679 L329,671 L330,671 L331,664 L332,664 L334,655 L336,653 L336,650 L337,650 L341,640 L343,639 L344,635 L347,633 L347,631 L357,621 L359,621 L360,619 L362,619 L364,617 L367,617 L369,615 L376,614 L376,613 L401,612 L401,611 L415,610 L415,609 L418,609 L418,608 L421,608 L421,607 L425,606 L430,601 L430,599 L432,597 L432,593 L433,593 L433,583 L432,583 L431,574 L430,574 L430,571 L429,571 L429,568 L428,568 L428,561 L431,558 L431,556 L435,553 L435,546 L432,543 L428,542 L427,539 L429,539 L430,537 L432,537 L436,533 L436,524 L435,524 L435,522 L433,520 L433,517 L432,517 L432,514 L431,514 L431,508 L432,508 L432,506 L436,502 L438,502 L440,500 L443,500 L443,499 L451,496 L452,494 L454,494 L455,491 L457,490 L457,482 L456,482 L455,478 L453,477 L453,475 L449,472 L449,470 L445,467 L445,465 L440,461 L440,459 L433,452 L433,450 L431,449 L431,447 L429,446 L429,444 L427,443 L427,441 L425,439 L424,432 L423,432 L423,423 L424,423 L425,411 L426,411 L426,399 L425,399 L424,386 L423,386 L422,378 L421,378 L419,369 L417,367 L417,364 L416,364 L413,356 L411,355 L409,349 L407,348 L407,346 L402,341 L402,339 L398,336 L398,334 L381,317 L379,317 L377,314 L375,314 L373,311 L371,311 L369,308 L365,307 L361,303 L359,303 L359,302 L357,302 L357,301 L355,301 L355,300 L353,300 L353,299 L351,299 L351,298 L349,298 L349,297 L347,297 L345,295 L342,295 L340,293 L337,293 L337,292 L329,290 L329,289 L325,289 L325,288 L318,287 L318,286 L313,286 L313,285 L308,285 L308,284 L303,284 L303,281 L305,281 L305,280 L332,283 L332,284 L344,286 L344,287 L356,290 L358,292 L361,292 L361,293 L363,293 L363,294 L365,294 L365,295 L375,299 L376,301 L380,302 L384,306 L386,306 L388,309 L390,309 L392,312 L394,312 L398,317 L400,317 L412,329 L412,331 L417,335 L417,337 L420,339 L420,341 L423,343 L423,345 L427,349 L427,351 L428,351 L429,355 L431,356 L431,358 L432,358 L432,360 L433,360 L433,362 L434,362 L434,364 L436,366 L436,369 L437,369 L437,371 L439,373 L439,376 L440,376 L440,379 L441,379 L441,382 L442,382 L442,385 L443,385 L443,389 L444,389 L445,400 L446,400 L446,428 L447,428 L448,434 L450,435 L451,439 L456,444 L456,446 L460,449 L460,451 L472,463 L472,465 L481,473 L481,475 L486,479 L486,481 L488,483 L488,491 L487,491 L487,493 L482,498 L480,498 L480,499 L478,499 L478,500 L476,500 L476,501 L474,501 L472,503 L469,503 L469,504 L463,506 L463,508 L461,510 L462,518 L463,518 L465,524 L467,525 L467,534 L466,534 L466,536 L463,539 L461,539 L461,542 L465,546 L466,552 L465,552 L465,555 L459,561 L459,571 L460,571 L460,575 L461,575 L462,582 L463,582 L463,597 L462,597 L462,600 L461,600 L459,606 L453,612ZM1340,450 L1340,458 L1313,458 L1313,516 L1314,516 L1315,520 L1318,523 L1323,524 L1323,525 L1332,525 L1332,524 L1341,522 L1343,527 L1344,527 L1344,530 L1346,532 L1344,534 L1342,534 L1340,536 L1337,536 L1337,537 L1334,537 L1334,538 L1318,538 L1318,537 L1315,537 L1315,536 L1312,536 L1311,534 L1309,534 L1303,528 L1303,526 L1302,526 L1302,524 L1300,522 L1300,519 L1299,519 L1299,459 L1298,458 L1281,458 L1281,446 L1282,445 L1298,445 L1299,444 L1299,422 L1312,422 L1313,423 L1313,445 L1340,445ZM660,491 L660,496 L583,496 L583,500 L584,500 L585,506 L586,506 L587,510 L589,511 L589,513 L595,519 L597,519 L598,521 L600,521 L602,523 L605,523 L605,524 L608,524 L608,525 L625,525 L625,524 L629,524 L631,522 L634,522 L635,520 L639,519 L645,513 L652,520 L655,521 L648,529 L646,529 L642,533 L637,534 L635,536 L631,536 L631,537 L627,537 L627,538 L606,538 L606,537 L599,536 L599,535 L597,535 L595,533 L592,533 L591,531 L587,530 L577,520 L577,518 L575,517 L575,515 L574,515 L574,513 L572,511 L572,508 L571,508 L571,505 L570,505 L570,502 L569,502 L568,487 L569,487 L570,475 L571,475 L571,472 L572,472 L575,464 L577,463 L577,461 L586,452 L588,452 L589,450 L591,450 L591,449 L593,449 L593,448 L595,448 L597,446 L603,445 L603,444 L623,443 L623,444 L628,444 L628,445 L631,445 L633,447 L636,447 L637,449 L639,449 L642,452 L644,452 L651,459 L651,461 L654,463 L655,468 L657,469 L657,472 L658,472 L658,475 L659,475ZM869,503 L870,507 L872,508 L874,513 L879,518 L881,518 L883,521 L888,522 L890,524 L894,524 L894,525 L908,525 L908,524 L912,524 L914,522 L917,522 L917,521 L919,521 L921,518 L923,518 L928,513 L928,511 L930,510 L930,508 L931,508 L931,506 L932,506 L932,504 L934,502 L934,498 L935,498 L935,483 L934,483 L933,476 L930,473 L929,469 L922,462 L920,462 L919,460 L917,460 L915,458 L906,457 L906,456 L897,456 L897,457 L889,458 L889,459 L881,462 L874,469 L874,471 L872,472 L872,474 L871,474 L871,476 L869,478 L868,487 L867,487 L867,495 L868,495ZM150,421 L150,422 L142,422 L139,419 L138,411 L139,411 L139,409 L141,407 L143,407 L143,406 L150,406 L150,407 L153,408 L155,415 L154,415 L154,418ZM219,455 L221,457 L225,458 L229,462 L229,464 L230,464 L230,466 L232,468 L233,479 L232,479 L231,485 L229,486 L229,488 L223,494 L221,494 L219,496 L215,496 L215,497 L203,496 L203,495 L199,494 L193,488 L193,486 L192,486 L192,484 L190,482 L190,469 L191,469 L193,463 L195,462 L195,460 L198,459 L199,457 L203,456 L203,455 L206,455 L206,454 L217,454 L217,455ZM727,443 L727,444 L729,444 L729,458 L723,458 L723,457 L712,458 L712,459 L706,461 L700,467 L700,469 L697,472 L697,475 L695,477 L695,483 L694,483 L694,536 L693,537 L681,537 L680,536 L680,445 L694,445 L694,455 L697,455 L702,449 L704,449 L705,447 L707,447 L709,445 L716,444 L716,443ZM1249,506 L1249,501 L1250,501 L1250,445 L1264,445 L1264,536 L1263,537 L1250,537 L1250,527 L1247,527 L1240,534 L1237,534 L1236,536 L1229,537 L1229,538 L1210,538 L1210,537 L1206,537 L1206,536 L1200,535 L1199,533 L1195,532 L1188,525 L1188,523 L1186,522 L1186,520 L1185,520 L1185,518 L1183,516 L1182,507 L1181,507 L1181,445 L1195,445 L1195,503 L1196,503 L1196,508 L1197,508 L1197,511 L1198,511 L1199,515 L1206,522 L1209,522 L1209,523 L1214,524 L1214,525 L1228,525 L1228,524 L1234,523 L1237,520 L1239,520 L1245,514 L1245,512 L1247,511 L1247,508ZM299,602 L298,603 L291,603 L291,602 L289,602 L285,598 L285,596 L284,596 L284,587 L286,586 L287,583 L289,583 L291,581 L299,581 L299,582 L301,582 L305,586 L306,595 L305,595 L304,599ZM1054,513 L1054,536 L1053,537 L1040,537 L1040,502 L1039,502 L1039,475 L1038,475 L1038,471 L1037,471 L1035,465 L1030,460 L1028,460 L1026,458 L1019,457 L1019,456 L1003,457 L1003,458 L995,461 L990,466 L990,468 L987,471 L986,477 L985,477 L985,483 L984,483 L984,537 L971,537 L970,536 L970,445 L984,445 L985,454 L988,454 L995,447 L1003,445 L1003,444 L1007,444 L1007,443 L1024,443 L1024,444 L1028,444 L1028,445 L1034,446 L1037,449 L1039,449 L1040,451 L1042,451 L1046,455 L1048,460 L1050,461 L1051,466 L1052,466 L1052,470 L1053,470 L1053,476 L1054,476ZM1138,495 L1126,494 L1126,493 L1107,493 L1107,494 L1100,495 L1100,496 L1096,497 L1091,502 L1091,504 L1090,504 L1090,515 L1091,515 L1091,517 L1092,517 L1092,519 L1094,521 L1096,521 L1097,523 L1102,524 L1102,525 L1117,526 L1117,525 L1122,525 L1122,524 L1128,523 L1131,520 L1133,520 L1139,514 L1139,512 L1141,510 L1141,507 L1142,507 L1142,496ZM854,503 L854,499 L853,499 L853,483 L854,483 L855,475 L857,473 L857,470 L858,470 L859,466 L864,461 L864,459 L866,459 L866,457 L868,455 L870,455 L873,451 L875,451 L878,448 L883,447 L885,445 L894,444 L894,443 L909,443 L909,444 L914,444 L914,445 L920,446 L920,447 L928,450 L929,452 L931,452 L941,462 L941,464 L944,467 L944,469 L945,469 L945,471 L947,473 L947,476 L948,476 L948,480 L949,480 L948,490 L950,490 L950,493 L949,493 L949,502 L948,502 L947,508 L946,508 L946,510 L944,512 L944,515 L942,516 L942,518 L939,520 L939,522 L933,528 L931,528 L929,531 L927,531 L927,532 L925,532 L925,533 L923,533 L921,535 L915,536 L915,537 L911,537 L911,538 L892,538 L892,537 L887,537 L887,536 L884,536 L882,534 L877,533 L876,531 L872,530 L861,519 L860,515 L857,512 L857,509 L856,509ZM754,527 L752,527 L745,520 L745,518 L743,517 L743,515 L741,514 L741,512 L739,510 L739,507 L738,507 L738,504 L737,504 L737,500 L736,500 L736,482 L737,482 L737,477 L738,477 L739,471 L740,471 L743,463 L747,460 L747,458 L751,454 L753,454 L755,451 L757,451 L758,449 L760,449 L760,448 L762,448 L764,446 L770,445 L770,444 L775,444 L775,443 L791,443 L791,444 L799,445 L799,446 L809,450 L813,455 L815,455 L815,457 L818,457 L818,454 L817,454 L818,445 L832,445 L832,538 L831,538 L831,544 L830,544 L829,550 L828,550 L826,556 L823,558 L823,560 L818,565 L813,567 L812,569 L810,569 L810,570 L808,570 L806,572 L800,573 L800,574 L795,574 L795,575 L772,575 L772,574 L768,574 L768,573 L764,573 L764,572 L761,572 L759,570 L756,570 L756,569 L752,568 L751,566 L749,566 L747,563 L745,563 L743,561 L746,558 L746,556 L751,551 L754,551 L757,555 L761,556 L764,559 L767,559 L767,560 L770,560 L770,561 L774,561 L774,562 L792,562 L792,561 L797,561 L797,560 L802,559 L805,556 L807,556 L812,551 L812,549 L814,548 L816,540 L817,540 L817,524 L814,524 L807,531 L805,531 L805,532 L803,532 L803,533 L801,533 L799,535 L791,536 L791,537 L774,537 L774,536 L766,535 L766,534 L764,534 L762,532 L759,532ZM1099,460 L1096,461 L1095,463 L1093,463 L1091,466 L1089,466 L1081,457 L1087,451 L1089,451 L1090,449 L1092,449 L1092,448 L1094,448 L1096,446 L1103,445 L1103,444 L1108,444 L1108,443 L1125,443 L1125,444 L1134,445 L1134,446 L1137,446 L1140,449 L1144,450 L1150,456 L1150,458 L1152,459 L1152,461 L1154,463 L1155,470 L1156,470 L1156,537 L1143,537 L1142,536 L1142,528 L1139,528 L1135,532 L1133,532 L1133,533 L1131,533 L1131,534 L1129,534 L1127,536 L1124,536 L1124,537 L1120,537 L1120,538 L1099,538 L1099,537 L1095,537 L1095,536 L1092,536 L1092,535 L1088,534 L1087,532 L1085,532 L1079,526 L1079,524 L1078,524 L1078,522 L1076,520 L1076,516 L1075,516 L1075,504 L1076,504 L1076,500 L1077,500 L1079,494 L1085,488 L1087,488 L1088,486 L1093,485 L1095,483 L1103,482 L1103,481 L1129,481 L1129,482 L1135,482 L1135,483 L1142,483 L1141,468 L1140,468 L1140,466 L1134,460 L1132,460 L1130,458 L1127,458 L1127,457 L1123,457 L1123,456 L1110,456 L1110,457 L1105,457 L1105,458 L1102,458 L1102,459 L1099,459ZM293,510 L299,510 L299,511 L303,512 L307,516 L307,518 L309,520 L309,528 L308,528 L307,532 L303,536 L298,537 L298,538 L292,538 L292,537 L287,536 L283,532 L282,526 L281,526 L281,522 L282,522 L283,516 L287,512ZM180,606 L178,606 L175,603 L175,596 L179,592 L185,592 L189,596 L189,603 L186,606 L183,606 L183,607 L180,607ZM226,384 L227,384 L228,380 L230,378 L232,378 L233,376 L235,376 L235,375 L245,375 L245,376 L248,376 L255,383 L255,387 L256,387 L255,398 L253,399 L253,401 L251,403 L249,403 L248,405 L245,405 L245,406 L233,405 L226,398 L226,395 L225,395ZM753,477 L752,481 L751,481 L751,486 L750,486 L750,495 L751,495 L751,500 L752,500 L753,506 L755,507 L756,511 L763,518 L765,518 L766,520 L768,520 L770,522 L777,523 L777,524 L789,524 L789,523 L797,522 L797,521 L801,520 L802,518 L804,518 L813,509 L813,507 L814,507 L814,505 L816,503 L818,487 L817,487 L817,481 L816,481 L815,475 L814,475 L813,471 L811,470 L811,468 L806,463 L804,463 L803,461 L799,460 L798,458 L794,458 L794,457 L790,457 L790,456 L778,456 L778,457 L771,458 L771,459 L765,461 L764,463 L762,463 L757,468 L757,470 L755,471ZM343,403 L343,402 L350,402 L353,405 L354,412 L353,412 L353,414 L351,416 L344,417 L344,416 L342,416 L339,413 L339,406ZM242,628 L243,629 L242,634 L241,634 L241,636 L239,636 L237,638 L233,638 L233,637 L231,637 L228,634 L228,627 L232,623 L238,623 L238,624 L240,624 L242,626ZM291,659 L287,659 L287,658 L285,658 L283,656 L283,652 L282,651 L283,651 L283,648 L286,645 L294,645 L296,647 L296,649 L297,649 L296,656 L293,659ZM236,306 L237,304 L244,304 L247,307 L248,314 L247,314 L247,316 L244,319 L237,319 L236,317 L234,317 L234,315 L233,315 L233,308 L234,308 L234,306ZM143,559 L139,555 L140,547 L142,545 L145,545 L145,544 L151,545 L153,547 L153,549 L154,549 L153,557 L150,558 L150,559 L147,559 L147,560Z" fill="#001C3C" fill-rule="evenodd" data-contours="24"/>
  <path id="orange" d="M1362,522 L1360,520 L1359,516 L1357,515 L1357,512 L1356,512 L1355,506 L1354,506 L1354,488 L1355,488 L1355,484 L1356,484 L1356,481 L1357,481 L1357,478 L1358,478 L1360,472 L1362,471 L1362,469 L1364,468 L1364,466 L1368,463 L1368,461 L1370,459 L1372,459 L1376,454 L1378,454 L1379,452 L1381,452 L1382,450 L1384,450 L1384,449 L1386,449 L1388,447 L1391,447 L1391,446 L1394,446 L1394,445 L1398,445 L1398,444 L1403,444 L1403,443 L1423,444 L1425,446 L1430,447 L1431,449 L1433,449 L1437,453 L1437,455 L1438,455 L1438,457 L1440,459 L1440,469 L1439,469 L1439,472 L1436,475 L1436,477 L1432,481 L1430,481 L1428,484 L1426,484 L1425,486 L1423,486 L1423,487 L1421,487 L1421,488 L1419,488 L1419,489 L1417,489 L1415,491 L1412,491 L1412,492 L1409,492 L1409,493 L1405,493 L1405,494 L1400,494 L1400,495 L1394,495 L1394,496 L1385,496 L1383,494 L1383,490 L1386,487 L1401,485 L1401,484 L1410,482 L1410,481 L1416,479 L1417,477 L1419,477 L1424,472 L1424,470 L1425,470 L1425,461 L1424,461 L1424,459 L1422,457 L1420,457 L1418,455 L1415,455 L1415,454 L1409,454 L1409,453 L1399,454 L1399,455 L1396,455 L1396,456 L1388,459 L1387,461 L1385,461 L1378,468 L1378,470 L1374,474 L1374,476 L1373,476 L1373,478 L1371,480 L1370,486 L1369,486 L1368,499 L1369,499 L1369,504 L1370,504 L1370,507 L1371,507 L1373,513 L1381,521 L1383,521 L1383,522 L1385,522 L1387,524 L1390,524 L1390,525 L1393,525 L1393,526 L1399,526 L1399,527 L1409,527 L1409,526 L1421,525 L1421,524 L1427,523 L1427,522 L1435,519 L1436,517 L1441,515 L1446,509 L1450,510 L1450,514 L1448,515 L1448,517 L1444,520 L1444,522 L1442,524 L1440,524 L1434,530 L1432,530 L1432,531 L1430,531 L1430,532 L1428,532 L1426,534 L1420,535 L1420,536 L1411,537 L1411,538 L1391,538 L1391,537 L1386,537 L1386,536 L1382,536 L1380,534 L1375,533 L1374,531 L1370,530 L1367,526 L1365,526 L1363,524 L1363,522ZM117,480 L123,474 L131,474 L131,475 L133,475 L133,476 L135,476 L137,478 L138,483 L139,483 L139,489 L138,489 L138,491 L133,496 L131,496 L131,497 L124,497 L124,496 L120,495 L117,492 L117,490 L116,490 L116,481ZM238,566 L238,568 L235,571 L231,572 L231,573 L222,573 L222,572 L220,572 L215,567 L215,564 L214,564 L214,555 L215,555 L215,553 L220,548 L222,548 L222,547 L231,547 L231,548 L235,549 L238,552 L239,556 L240,556 L240,564ZM289,460 L285,456 L285,454 L284,454 L284,444 L285,444 L285,441 L290,436 L292,436 L292,435 L303,435 L303,436 L305,436 L310,441 L311,446 L312,446 L312,451 L311,451 L310,456 L305,461 L302,461 L302,462 L292,462 L292,461ZM168,349 L170,346 L172,346 L174,344 L179,344 L179,345 L183,346 L185,348 L185,350 L186,350 L186,358 L185,358 L185,360 L182,363 L180,363 L180,364 L173,364 L173,363 L171,363 L168,360 L168,358 L167,358 L167,351 L168,351ZM304,346 L305,346 L305,354 L298,361 L290,361 L290,360 L286,359 L285,356 L283,355 L283,351 L282,351 L283,345 L284,345 L284,343 L287,340 L289,340 L291,338 L296,338 L296,339 L301,340 L303,342Z" fill="#ED7312" fill-rule="evenodd" data-contours="6"/>
  <path id="green" d="M896,621 L899,622 L899,624 L901,626 L901,631 L900,631 L899,635 L896,636 L895,638 L886,639 L886,638 L879,637 L879,636 L877,636 L875,634 L877,629 L879,629 L881,632 L884,632 L884,633 L892,633 L892,632 L895,631 L895,627 L893,625 L883,623 L883,622 L881,622 L881,621 L879,621 L877,619 L877,617 L876,617 L876,610 L877,610 L877,608 L879,606 L884,605 L884,604 L892,604 L892,605 L895,605 L895,606 L899,607 L900,609 L898,610 L898,612 L895,612 L895,611 L890,610 L890,609 L885,609 L885,610 L882,611 L882,616 L883,617 L889,618 L889,619 L893,619 L893,620 L896,620ZM646,619 L645,619 L645,623 L646,623 L646,627 L647,627 L647,629 L649,631 L651,631 L653,633 L661,633 L661,632 L665,631 L666,629 L668,629 L670,631 L670,633 L666,637 L663,637 L663,638 L659,638 L659,639 L651,638 L651,637 L649,637 L649,636 L647,636 L647,635 L645,635 L643,633 L643,631 L640,628 L640,624 L639,624 L640,615 L641,615 L642,611 L646,607 L648,607 L650,605 L653,605 L653,604 L661,604 L661,605 L664,605 L664,606 L668,607 L670,609 L670,611 L668,613 L665,613 L664,611 L659,610 L659,609 L651,610 L647,614ZM716,615 L717,612 L723,606 L725,606 L725,605 L728,605 L728,604 L740,605 L743,608 L745,608 L746,611 L749,614 L749,617 L750,617 L749,629 L748,629 L748,631 L743,636 L741,636 L739,638 L735,638 L735,639 L726,638 L726,637 L722,636 L718,632 L718,630 L716,628 L716,625 L715,625 L715,617 L716,617ZM743,628 L743,626 L744,626 L744,617 L743,617 L743,615 L742,615 L742,613 L740,611 L735,610 L735,609 L730,609 L730,610 L727,610 L727,611 L725,611 L723,613 L722,618 L721,618 L721,625 L722,625 L722,628 L726,632 L728,632 L728,633 L737,633 L737,632 L739,632ZM954,616 L954,628 L955,628 L955,630 L957,632 L959,632 L959,633 L966,633 L966,632 L969,631 L970,626 L971,626 L971,605 L976,605 L977,626 L976,626 L976,630 L975,630 L974,634 L972,636 L968,637 L968,638 L965,638 L965,639 L960,639 L960,638 L954,637 L950,633 L949,627 L948,627 L948,605 L949,604 L953,604 L954,605ZM1106,614 L1106,638 L1100,638 L1100,610 L1090,610 L1089,609 L1089,605 L1114,605 L1114,604 L1116,604 L1117,605 L1117,609 L1116,610 L1106,610ZM1313,609 L1308,610 L1307,612 L1305,612 L1303,617 L1302,617 L1302,625 L1303,625 L1303,628 L1307,632 L1309,632 L1309,633 L1318,633 L1318,632 L1322,631 L1322,625 L1314,625 L1314,620 L1328,620 L1328,633 L1325,636 L1320,637 L1320,638 L1316,638 L1316,639 L1311,639 L1311,638 L1307,638 L1307,637 L1303,636 L1298,631 L1297,626 L1296,626 L1297,614 L1298,614 L1298,612 L1304,606 L1309,605 L1309,604 L1317,604 L1317,605 L1321,605 L1321,606 L1325,607 L1326,610 L1324,612 L1321,612 L1319,610ZM1167,638 L1163,637 L1163,612 L1164,612 L1163,605 L1169,605 L1169,638ZM1233,617 L1236,619 L1236,621 L1239,623 L1240,626 L1243,626 L1243,605 L1248,605 L1248,638 L1243,638 L1239,634 L1237,629 L1234,627 L1234,625 L1231,623 L1231,621 L1228,618 L1225,618 L1225,638 L1219,638 L1219,605 L1225,605 L1227,607 L1227,609 L1230,611 L1230,613 L1233,615ZM1031,605 L1031,633 L1048,633 L1048,638 L1025,638 L1025,605ZM828,607 L828,614 L827,614 L827,618 L828,618 L828,637 L827,638 L822,638 L820,636 L820,634 L817,632 L817,630 L814,628 L814,626 L811,624 L811,622 L807,619 L807,617 L804,617 L804,638 L798,638 L798,605 L804,605 L806,607 L806,609 L810,612 L810,614 L813,616 L813,618 L817,621 L817,623 L819,625 L822,625 L822,605 L827,605Z" fill="#547260" fill-rule="evenodd" data-contours="11"/>
</svg>
