<svg xmlns="http://www.w3.org/2000/svg" width="408" height="435" viewBox="98 262 408 435" fill="none" role="img" aria-labelledby="title desc">
  <title id="title">Ergonaute human insight symbol</title>
  <desc id="desc">Vector trace of the approved outlined human profile and blue and orange insight points.</desc>
  <path id="navy" d="M199,493 L193,488 L193,486 L192,486 L192,484 L190,482 L190,469 L191,469 L193,463 L195,462 L195,460 L198,459 L199,457 L203,456 L203,455 L206,455 L206,454 L217,454 L217,455 L220,455 L221,457 L225,458 L229,462 L229,464 L230,464 L230,466 L232,468 L232,471 L233,471 L233,479 L232,479 L232,482 L231,482 L231,485 L229,486 L229,488 L223,494 L221,494 L219,496 L215,496 L215,497 L207,497 L207,496 L203,496 L203,495 L201,495ZM352,652 L343,661 L343,663 L339,666 L339,668 L335,671 L335,673 L333,674 L333,676 L330,679 L328,679 L328,675 L329,675 L329,671 L330,671 L330,668 L331,668 L331,664 L332,664 L334,655 L336,653 L336,650 L337,650 L341,640 L343,639 L343,637 L347,633 L347,631 L357,621 L359,621 L360,619 L362,619 L364,617 L367,617 L369,615 L372,615 L372,614 L376,614 L376,613 L401,612 L401,611 L415,610 L415,609 L418,609 L418,608 L421,608 L421,607 L425,606 L430,601 L430,599 L432,597 L432,593 L433,593 L433,583 L432,583 L431,574 L430,574 L430,571 L429,571 L429,568 L428,568 L428,561 L431,558 L431,556 L435,553 L435,546 L432,543 L428,542 L427,539 L429,539 L430,537 L432,537 L436,533 L436,524 L435,524 L435,522 L433,520 L433,517 L432,517 L432,514 L431,514 L431,508 L432,508 L432,506 L436,502 L438,502 L440,500 L443,500 L443,499 L451,496 L452,494 L454,494 L455,491 L457,490 L457,482 L456,482 L455,478 L453,477 L453,475 L449,472 L449,470 L445,467 L445,465 L440,461 L440,459 L433,452 L433,450 L431,449 L431,447 L429,446 L429,444 L427,443 L427,441 L425,439 L424,432 L423,432 L423,423 L424,423 L425,411 L426,411 L426,399 L425,399 L424,386 L423,386 L422,378 L421,378 L419,369 L417,367 L417,364 L416,364 L413,356 L411,355 L409,349 L407,348 L407,346 L402,341 L402,339 L398,336 L398,334 L381,317 L379,317 L377,314 L375,314 L373,311 L371,311 L369,308 L365,307 L361,303 L359,303 L359,302 L357,302 L357,301 L355,301 L355,300 L353,300 L353,299 L351,299 L351,298 L349,298 L349,297 L347,297 L345,295 L342,295 L340,293 L337,293 L337,292 L329,290 L329,289 L325,289 L325,288 L318,287 L318,286 L313,286 L313,285 L308,285 L308,284 L303,284 L303,281 L305,281 L305,280 L332,283 L332,284 L344,286 L344,287 L356,290 L358,292 L361,292 L361,293 L363,293 L363,294 L365,294 L365,295 L375,299 L376,301 L380,302 L384,306 L386,306 L388,309 L390,309 L392,312 L394,312 L398,317 L400,317 L412,329 L412,331 L417,335 L417,337 L420,339 L420,341 L423,343 L423,345 L427,349 L427,351 L428,351 L429,355 L431,356 L431,358 L432,358 L432,360 L433,360 L433,362 L434,362 L434,364 L436,366 L436,369 L437,369 L437,371 L439,373 L439,376 L440,376 L440,379 L441,379 L441,382 L442,382 L442,385 L443,385 L443,389 L444,389 L445,400 L446,400 L446,428 L447,428 L448,434 L450,435 L451,439 L456,444 L456,446 L460,449 L460,451 L472,463 L472,465 L481,473 L481,475 L486,479 L486,481 L488,483 L488,491 L487,491 L487,493 L482,498 L480,498 L480,499 L478,499 L478,500 L476,500 L476,501 L474,501 L472,503 L469,503 L469,504 L463,506 L463,508 L461,510 L462,518 L463,518 L465,524 L467,525 L467,534 L466,534 L466,536 L463,539 L461,539 L461,542 L465,546 L466,552 L465,552 L465,555 L459,561 L459,571 L460,571 L460,575 L461,575 L462,582 L463,582 L463,597 L462,597 L462,600 L461,600 L459,606 L453,612 L451,612 L450,614 L448,614 L448,615 L446,615 L444,617 L441,617 L439,619 L431,620 L431,621 L427,621 L427,622 L422,622 L422,623 L417,623 L417,624 L411,624 L411,625 L402,626 L402,627 L398,627 L398,628 L394,628 L394,629 L390,629 L390,630 L384,631 L384,632 L382,632 L382,633 L380,633 L380,634 L378,634 L378,635 L368,639 L367,641 L362,643 L360,646 L358,646ZM232,377 L235,376 L235,375 L245,375 L245,376 L248,376 L249,378 L251,378 L253,380 L253,382 L255,383 L256,395 L255,395 L255,398 L253,399 L253,401 L251,403 L249,403 L248,405 L236,406 L236,405 L231,404 L227,400 L226,395 L225,395 L225,387 L226,387 L226,384 L227,384 L228,380 L230,378 L232,378ZM239,624 L242,626 L242,629 L243,629 L241,636 L239,636 L237,638 L231,637 L228,634 L228,627 L229,627 L229,625 L231,625 L232,623 L238,623ZM340,414 L339,413 L339,406 L343,402 L350,402 L353,405 L354,412 L353,412 L353,414 L351,416 L344,417 L344,416 L342,416ZM150,421 L150,422 L142,422 L139,419 L138,411 L139,411 L139,409 L141,407 L143,407 L143,406 L150,406 L150,407 L153,408 L155,415 L154,415 L154,418ZM283,530 L282,530 L282,526 L281,526 L282,518 L283,518 L283,516 L287,512 L289,512 L291,510 L299,510 L299,511 L303,512 L307,516 L307,518 L309,520 L309,528 L308,528 L307,532 L303,536 L301,536 L301,537 L298,537 L298,538 L289,537 L289,536 L287,536 L283,532ZM140,557 L139,549 L140,549 L140,547 L142,545 L148,544 L148,545 L151,545 L153,547 L154,555 L153,555 L152,558 L146,560 L146,559 L143,559 L143,558ZM283,651 L283,648 L286,645 L294,645 L296,647 L296,649 L297,649 L297,654 L296,654 L296,656 L293,659 L287,659 L287,658 L285,658 L283,656 L283,652 L282,652ZM299,602 L298,603 L291,603 L291,602 L289,602 L285,598 L285,596 L284,596 L284,587 L286,586 L287,583 L289,583 L291,581 L299,581 L299,582 L301,582 L305,586 L306,595 L305,595 L304,599ZM245,306 L248,309 L247,316 L244,319 L237,319 L236,317 L234,317 L234,315 L233,315 L233,308 L234,308 L234,306 L236,306 L237,304 L244,304ZM180,606 L178,606 L175,603 L175,596 L179,592 L185,592 L189,596 L189,603 L186,606 L183,606 L183,607 L180,607Z" fill="#001C3C" fill-rule="evenodd" data-contours="12"/>
  <path id="orange" d="M117,480 L123,474 L131,474 L131,475 L133,475 L133,476 L135,476 L137,478 L138,483 L139,483 L139,489 L138,489 L138,491 L133,496 L131,496 L131,497 L124,497 L124,496 L120,495 L117,492 L117,490 L116,490 L116,481ZM238,566 L238,568 L235,571 L231,572 L231,573 L222,573 L222,572 L220,572 L215,567 L215,564 L214,564 L214,555 L215,555 L215,553 L220,548 L222,548 L222,547 L231,547 L231,548 L235,549 L238,552 L239,556 L240,556 L240,564ZM289,460 L285,456 L285,454 L284,454 L284,444 L285,444 L285,441 L290,436 L292,436 L292,435 L303,435 L303,436 L305,436 L310,441 L311,446 L312,446 L312,451 L311,451 L310,456 L305,461 L302,461 L302,462 L292,462 L292,461ZM168,349 L170,346 L172,346 L174,344 L179,344 L179,345 L183,346 L185,348 L185,350 L186,350 L186,358 L185,358 L185,360 L182,363 L180,363 L180,364 L173,364 L173,363 L171,363 L168,360 L168,358 L167,358 L167,351 L168,351ZM304,346 L305,346 L305,354 L298,361 L290,361 L290,360 L286,359 L285,356 L283,355 L283,351 L282,351 L283,345 L284,345 L284,343 L287,340 L289,340 L291,338 L296,338 L296,339 L301,340 L303,342Z" fill="#ED7312" fill-rule="evenodd" data-contours="5"/>
  <path id="green" d="" fill="#547260" fill-rule="evenodd" data-contours="0"/>
</svg>
